#N canvas 456 0 894 710 10;
#X obj -65 147 alpha;
#X obj -33 -231 pix_video;
#X obj -57 -46 pix_texture;
#X obj -64 171 depth;
#X obj -45 -192 pix_threshold;
#X obj -21 -306 t b b;
#X floatatom 34 -219 5 0 100 2 - - -;
#X obj 5 -348 tgl 15 0 empty empty run 0 -6 0 10 -4034 -1 -1 0 1;
#X obj 37 -241 hsl 128 15 0 1 0 0 empty empty empty -2 -6 0 10 -228856
-1 -1 0 1;
#X obj -53 -154 hsl 128 15 0 1 0 1 empty empty R 12 8 1 12 -261689
-1 -1 12700 1;
#X obj -49 -89 hsl 128 15 0 1 0 1 empty empty G 12 8 1 12 -225271 -1
-1 12700 1;
#X obj -49 -110 hsl 128 15 0 1 0 1 empty empty B 12 8 1 12 -228992
-1 -1 12700 1;
#X obj 321 -369 bng 15 250 50 0 empty empty empty 0 -6 0 10 -128992
-1 -1;
#X obj -42 -70 hsl 128 15 0 1 0 1 empty empty A 12 8 1 12 -195568 -1
-1 12700 1;
#X obj -52 11 colorRGB 1 1 1 0.15;
#N canvas 473 33 247 84 Gem.init 0;
#X obj 118 46 loadbang;
#X obj 118 113 outlet;
#X msg 118 81 reset \, buffer 1;
#X connect 0 0 2 0;
#X connect 2 0 1 0;
#X restore 198 -375 pd Gem.init;
#N canvas 340 107 682 322 gemwin 0;
#X obj 102 122 tgl 15 0 \$0-gemstart \$0-gemstart empty 17 7 0 10 -262144
-1 -1 0 1;
#X obj 102 161 r \$0-gemstart;
#X obj 102 182 select 1 0;
#X msg 102 214 create \, 1;
#X msg 177 215 destroy;
#X obj 102 239 t a;
#X obj 318 54 inlet;
#X obj 318 255 gemwin;
#X obj 318 100 t a a;
#X obj 318 287 outlet;
#X obj 350 128 route create destroy;
#X obj 350 150 t b;
#X msg 350 172 1;
#X obj 390 150 t b;
#X msg 390 172 0;
#X obj 350 195 t f;
#X msg 350 219 set \$1;
#X text 118 122 rendering;
#X connect 1 0 2 0;
#X connect 2 0 3 0;
#X connect 2 1 4 0;
#X connect 3 0 5 0;
#X connect 4 0 5 0;
#X connect 5 0 8 0;
#X connect 6 0 8 0;
#X connect 7 0 9 0;
#X connect 8 0 7 0;
#X connect 8 1 10 0;
#X connect 10 0 11 0;
#X connect 10 1 13 0;
#X connect 11 0 12 0;
#X connect 12 0 15 0;
#X connect 13 0 14 0;
#X connect 14 0 15 0;
#X connect 15 0 16 0;
#X connect 16 0 0 0;
#X coords 0 -1 1 1 85 40 1 100 100;
#X restore 178 -347 pd gemwin;
#X msg 36 -296 dialog;
#X msg 85 -319 enumerate;
#X msg 114 -271 close;
#X msg 92 -291 open 1;
#X obj 34 -343 hsl 128 15 10 127 0 1 empty empty empty -2 -6 0 10 -204786
-1 -1 0 1;
#X floatatom 45 -317 5 0 0 0 - - -;
#X obj -21 -328 metro;
#X msg 30 -368 100;
#X obj 274 306 hsl 128 15 0.5 20 0 0 empty empty empty -2 -6 0 10 -232576
-1 -1 1700 1;
#X floatatom 273 338 5 0 0 0 - - -;
#X obj 143 304 rectangle;
#X obj 274 360 hsl 128 15 0.5 20 0 0 empty empty empty -2 -6 0 10 -232576
-1 -1 0 1;
#X floatatom 207 301 5 0 0 0 - - -;
#X obj 50 219 hsl 128 15 0.5 5 0 1 empty empty empty -2 -6 0 10 -232576
-1 -1 12700 1;
#X floatatom 11 244 5 0 0 1 size - -;
#X obj 9 265 hsl 128 15 5 50 0 1 empty empty empty -2 -6 0 10 -204800
-1 -1 0 1;
#X floatatom 11 284 5 0 0 1 segments - -;
#X obj -61 286 sphere;
#X obj 85 86 hsl 128 15 0 360 0 0 empty empty Z 12 8 1 12 -233017 -1
-1 3100 1;
#X obj -20 117 rotateXYZ 0 0 0;
#X obj 87 45 hsl 128 15 0 360 0 0 empty empty X 12 8 1 12 -233017 -1
-1 2600 1;
#X obj 87 65 hsl 128 15 0 360 0 0 empty empty Y 12 8 1 12 -233017 -1
-1 2400 1;
#X obj 101 109 hsl 128 15 0.5 20 0 0 empty empty empty -2 -6 0 10 -232576
-1 -1 11100 1;
#X floatatom 100 144 5 0 0 0 - - -;
#X obj 101 166 hsl 128 15 0.5 20 0 0 empty empty empty -2 -6 0 10 -232576
-1 -1 0 1;
#X floatatom 98 190 5 0 0 0 - - -;
#X obj 34 193 cube;
#X obj 210 -223 somepixeffects;
#X obj 353 -346 gemwin;
#X msg 352 -376 create;
#X msg 407 -377 destroy;
#X obj -39 -279 gemhead 10;
#X obj 514 -88 pix_texture;
#X msg 529 -292 snap;
#X obj 502 63 rotateXYZ;
#X obj 502 -7 translateXYZ;
#X obj 672 -317 grid grid1 300 0 4 300 0 4 0 0.01 0.01 10 10 822 -167
;
#X obj 669 160 hsl 200 15 0 2 0 0 empty empty empty -2 -8 0 10 -260097
-1 -1 6800 1;
#X obj 601 44 hsl 200 15 0 360 0 0 empty empty empty -2 -8 0 10 -260097
-1 -1 13400 1;
#X obj 502 -55 separator;
#X obj 516 119 vradio 15 1 0 3 empty empty empty 0 -8 0 10 -262144
-1 -1 2;
#X text 534 117 4/3;
#X text 534 132 16/9;
#X obj 491 207 rectangle;
#X text 534 147 4/4;
#X obj 672 -357 bng 15 250 50 0 empty empty empty 17 7 0 10 -258113
-262144 -1;
#X obj 904 137 pix_video;
#X obj 869 254 pix_texture;
#X obj 855 285 rectangle 4 4;
#X obj 502 -232 alpha;
#X obj 761 135 alpha;
#X obj 879 143 tgl 15 0 empty empty empty 17 7 0 10 -262144 -1 -1 1
1;
#X floatatom 596 -185 5 0 0 0 - - -;
#X floatatom 539 -181 5 0 0 0 - - -;
#X obj 529 -322 t a;
#X msg 672 -337 goto 150 150;
#X obj 852 -12 vradio 15 1 0 2 empty empty empty 0 -8 0 10 -262144
-1 -1 1;
#X obj 851 31 sel 0 1;
#X text 873 -14 foreground;
#X text 879 7 Background;
#X text 689 -359 centre;
#X obj 462 -352 gemhead 1200;
#X msg 699 106 set 1300;
#X obj 777 116 gemhead 1000;
#X obj 565 -351 gemhead 1500;
#X msg 680 86 set 1000;
#X msg 902 104 colorspace RGBA;
#X obj 493 -205 pix_alpha 0 1 1 1 1 0 0 0;
#X obj 817 211 pix_rgba;
#X obj 502 -262 pix_snap 0 0 500 500;
#X obj 855 225 pix_alpha 0 1 1 1 1 1 1 1;
#N canvas 1266 477 450 300 aspect_ratio 0;
#X obj 104 240 * 1;
#X obj 161 240 * 1;
#X obj 104 180 unpack f f;
#X obj 104 80 sel 0 1 2;
#X msg 104 110 4 3;
#X msg 121 130 5.3 3;
#X msg 138 150 4 4;
#X floatatom 104 210 5 0 0 0 - - -;
#X floatatom 161 210 5 0 0 0 - - -;
#X obj 184 180 t b b f f;
#X obj 104 50 inlet;
#X obj 184 150 inlet;
#X obj 104 270 outlet;
#X obj 161 270 outlet;
#X connect 0 0 12 0;
#X connect 1 0 13 0;
#X connect 2 0 7 0;
#X connect 2 1 8 0;
#X connect 3 0 4 0;
#X connect 3 1 5 0;
#X connect 3 2 6 0;
#X connect 4 0 2 0;
#X connect 5 0 2 0;
#X connect 6 0 2 0;
#X connect 7 0 0 0;
#X connect 8 0 1 0;
#X connect 9 0 7 0;
#X connect 9 1 8 0;
#X connect 9 2 0 1;
#X connect 9 3 1 1;
#X connect 10 0 3 0;
#X connect 11 0 9 0;
#X restore 516 177 pd aspect_ratio;
#X obj 672 -12 - 2;
#X obj 965 -12 - 2;
#X obj 484 -159 pix_contrast 1 1;
#X text 607 137 size of feedback;
#X text 558 23 rotation;
#X text 527 87 aspect ratio;
#X obj 514 -119 pix_motionblur;
#X floatatom 595 -159 5 0 99.9 0 - - -;
#X obj 595 -139 / 100;
#X text 786 -358 key feedback colour;
#X text 908 174 key video colour;
#X obj 284 -317 mtl/colorGrid;
#X obj 583 274 mtl/colorGrid;
#X obj 965 -340 gemwin;
#X msg 961 -367 reset \, create \, 1;
#X obj 252 108 counter 0 360;
#X obj 250 47 tgl 15 0 empty empty empty 17 7 0 10 -262144 -1 -1 1
1;
#X floatatom 253 140 5 0 0 0 - - -;
#X floatatom 309 50 5 0 0 0 - - -;
#X obj 97 -158 counter 0 360;
#X obj 94 -192 metro 100;
#X obj 95 -219 tgl 15 0 empty empty empty 17 7 0 10 -262144 -1 -1 0
1;
#X floatatom 98 -126 5 0 0 0 - - -;
#X floatatom 154 -216 5 0 0 0 - - -;
#X obj 252 76 metro 20;
#X obj 369 119 counter 0 360;
#X obj 367 58 tgl 15 0 empty empty empty 17 7 0 10 -262144 -1 -1 1
1;
#X floatatom 370 151 5 0 0 0 - - -;
#X floatatom 426 61 5 0 0 0 - - -;
#X obj 369 87 metro 20;
#X connect 0 0 3 0;
#X connect 1 0 4 0;
#X connect 2 0 14 0;
#X connect 3 0 43 0;
#X connect 3 0 34 0;
#X connect 4 0 44 0;
#X connect 5 0 48 0;
#X connect 6 0 4 1;
#X connect 7 0 23 0;
#X connect 8 0 6 0;
#X connect 9 0 14 1;
#X connect 10 0 14 2;
#X connect 11 0 14 3;
#X connect 12 0 45 0;
#X connect 13 0 14 4;
#X connect 14 0 36 0;
#X connect 17 0 1 0;
#X connect 18 0 1 0;
#X connect 19 0 1 0;
#X connect 20 0 1 0;
#X connect 21 0 22 0;
#X connect 21 0 23 1;
#X connect 23 0 5 0;
#X connect 24 0 21 0;
#X connect 25 0 26 0;
#X connect 25 0 27 1;
#X connect 28 0 29 0;
#X connect 28 0 27 2;
#X connect 30 0 31 0;
#X connect 30 0 34 1;
#X connect 32 0 33 0;
#X connect 32 0 34 2;
#X connect 35 0 36 3;
#X connect 36 0 0 0;
#X connect 37 0 36 1;
#X connect 38 0 36 2;
#X connect 39 0 40 0;
#X connect 39 0 43 1;
#X connect 41 0 42 0;
#X connect 44 0 2 0;
#X connect 46 0 45 0;
#X connect 47 0 45 0;
#X connect 48 0 1 0;
#X connect 49 0 56 0;
#X connect 50 0 86 0;
#X connect 51 0 60 0;
#X connect 52 0 51 0;
#X connect 53 0 89 0;
#X connect 53 1 90 0;
#X connect 54 0 88 1;
#X connect 55 0 51 3;
#X connect 56 0 52 0;
#X connect 57 0 88 0;
#X connect 62 0 72 0;
#X connect 63 0 85 0;
#X connect 64 0 65 0;
#X connect 66 0 84 0;
#X connect 67 0 63 0;
#X connect 68 0 87 0;
#X connect 69 0 91 2;
#X connect 70 0 91 1;
#X connect 71 0 50 0;
#X connect 72 0 53 0;
#X connect 73 0 74 0;
#X connect 73 0 68 0;
#X connect 74 0 82 0;
#X connect 74 1 79 0;
#X connect 78 0 86 0;
#X connect 78 0 71 0;
#X connect 79 0 80 0;
#X connect 80 0 67 0;
#X connect 81 0 71 0;
#X connect 82 0 80 0;
#X connect 83 0 63 0;
#X connect 84 0 91 0;
#X connect 85 0 87 0;
#X connect 86 0 66 0;
#X connect 87 0 64 0;
#X connect 88 0 60 1;
#X connect 88 1 60 2;
#X connect 89 0 52 1;
#X connect 90 0 52 2;
#X connect 91 0 95 0;
#X connect 95 0 49 0;
#X connect 96 0 97 0;
#X connect 97 0 95 1;
#X connect 100 0 84 3;
#X connect 101 0 87 3;
#X connect 103 0 102 0;
#X connect 104 0 106 0;
#X connect 105 0 113 0;
#X connect 106 0 36 1;
#X connect 106 0 36 2;
#X connect 106 0 36 3;
#X connect 107 0 113 1;
#X connect 108 0 111 0;
#X connect 109 0 108 0;
#X connect 110 0 109 0;
#X connect 111 0 11 0;
#X connect 111 0 10 0;
#X connect 111 0 14 1;
#X connect 111 0 14 2;
#X connect 112 0 109 1;
#X connect 113 0 104 0;
#X connect 114 0 116 0;
#X connect 115 0 118 0;
#X connect 116 0 51 2;
#X connect 116 0 51 3;
#X connect 116 0 51 1;
#X connect 117 0 118 1;
#X connect 118 0 114 0;
