#N canvas 49 54 1317 714 10;
#X declare -lib Gem;
#X declare -lib Gem;
#X obj 410 636 cnv 15 100 60 empty empty empty 20 12 0 14 -195568 -66577
0;
#N canvas 0 0 450 300 gemwin 0;
#X obj 132 136 gemwin;
#X obj 67 89 outlet;
#X obj 67 10 inlet;
#X obj 67 41 route create;
#X msg 67 70 set destroy;
#X msg 142 68 set create;
#X msg 132 112 create \, 1;
#X msg 198 112 destroy;
#X connect 2 0 3 0;
#X connect 3 0 4 0;
#X connect 3 0 6 0;
#X connect 3 1 5 0;
#X connect 3 1 7 0;
#X connect 4 0 1 0;
#X connect 5 0 1 0;
#X connect 6 0 0 0;
#X connect 7 0 0 0;
#X restore 415 675 pd gemwin;
#X msg 415 656 create;
#X text 411 635 Create window:;
#X obj 347 504 cnv 15 160 100 empty empty empty 20 12 0 14 -24198 -66577
0;
#X obj 347 609 pix_texture;
#X obj 372 520 hsl 128 15 0 1 0 1 empty empty empty -2 -6 0 8 -262144
-1 -1 12700 1;
#X floatatom 369 545 5 0 0 0 - - -;
#X msg 426 544 0.7 0.7;
#X obj 347 572 pix_mix 0;
#X floatatom 771 209 5 0 0 0 - - -;
#X floatatom 816 252 5 0 0 0 - - -;
#X floatatom 820 276 5 0 0 0 - - -;
#X floatatom 791 516 5 0 0 0 - - -;
#X text 826 510 width;
#X text 856 494 height;
#X floatatom 818 496 5 0 0 0 - - -;
#X floatatom 764 536 5 0 0 0 - - -;
#X text 806 534 #frames;
#X obj 819 233 hsl 128 15 0 1 0 0 empty empty empty -2 -6 0 8 -262144
-1 -1 0 0;
#X text 807 208 Playback speed;
#X text 681 33 Description: A movie file manager and player.;
#X text 1114 213 SUMMARY:;
#X text 1114 233 Inlet_1: Gemlist;
#X text 1115 247 Inlet_2: File managment;
#X text 1115 263 Inlet_3: PLayback rate;
#X text 1119 303 Outlet_1: Gemlist;
#X obj 862 94 tgl 15 0 empty empty empty 0 -6 0 10 -262144 -1 -1 0
1;
#X floatatom 749 165 5 0 0 0 - - -;
#X floatatom 846 473 5 0 0 0 - - -;
#X obj 760 95 bng 15 250 50 0 empty empty empty 17 7 0 10 -262144 -1
-1;
#X obj 685 94 gemhead;
#X obj 685 561 pix_texture;
#X obj 746 117 bng 15 250 50 0 empty empty empty 17 7 0 10 -262144
-1 -1;
#X obj 746 137 openpanel;
#X text 790 161 You can recall movies by an index number once they
are loaded.;
#X text 681 47 tags: gems;
#X text 1116 278 Inlet_4: Frame select;
#X text 1117 321 Outlet_2: Movie info;
#X text 1117 337 Outlet_3: End of file (bang);
#X text 889 330 Loop;
#X text 851 252 Relative frame (0-1);
#X msg 819 298 abs \$1;
#X text 867 292 Absolute frame;
#X msg 836 331 0.25 0.3;
#X msg 866 360 0 0.5;
#X msg 865 385 0 1;
#X obj 764 428 unpack f f f f s;
#X symbolatom 881 451 50 0 0 0 - - -;
#X text 1185 450 filename;
#X obj 770 187 iemlib/init 1;
#X obj 1241 36 import Gem;
#X text 881 473 frame rate(fps) \, defaults to 20 with old versions
of Gem;
#X obj 862 118 /home/madmin/invaderbacca@gmail.com/VizPD/mtl/gemsWin
/dimen 640 480;
#X obj 685 381 /home/madmin/invaderbacca@gmail.com/VizPD/mtl/gemsMovies
;
#X obj 817 601 /home/madmin/invaderbacca@gmail.com/VizPD/mtl/Fit window
;
#X obj 685 614 rectangle 5 5;
#X obj 54 159 gemhead;
#X obj 48 534 alpha;
#X obj 54 193 pix_video;
#X obj 43 407 pix_texture;
#X obj 50 570 depth;
#X obj 42 232 pix_threshold;
#X obj 54 118 t b b;
#X floatatom 121 205 5 0 100 2 - - -;
#X obj 54 38 tgl 15 0 empty empty run 0 -6 0 10 -4034 -1 -1 0 1;
#X obj 124 183 hsl 128 15 0 1 0 0 empty empty empty -2 -6 0 10 -228856
-1 -1 0 1;
#X obj 123 384 hsl 128 15 0 1 0 1 empty empty R 12 8 1 12 -261689 -1
-1 12700 1;
#X obj 123 404 hsl 128 15 0 1 0 1 empty empty G 12 8 1 12 -225271 -1
-1 12700 1;
#X obj 123 424 hsl 128 15 0 1 0 1 empty empty B 12 8 1 12 -228992 -1
-1 12700 1;
#X obj 203 22 bng 15 250 50 0 empty empty empty 0 -6 0 10 -128992 -1
-1;
#X obj 123 444 hsl 128 15 0 1 0 1 empty empty A 12 8 1 12 -195568 -1
-1 12700 1;
#X obj 48 495 colorRGB 1 1 1 0.15;
#N canvas 87 154 247 160 Gem.init 0;
#X obj 118 46 loadbang;
#X obj 118 113 outlet;
#X msg 118 81 reset \, buffer 1;
#X connect 0 0 2 0;
#X connect 2 0 1 0;
#X restore 224 29 pd Gem.init;
#N canvas 340 107 682 322 gemwin 0;
#X obj 102 122 tgl 15 0 \$0-gemstart \$0-gemstart empty 17 7 0 10 -262144
-1 -1 0 1;
#X obj 102 161 r \$0-gemstart;
#X obj 102 182 select 1 0;
#X msg 102 214 create \, 1;
#X msg 177 215 destroy;
#X obj 102 239 t a;
#X obj 318 54 inlet;
#X obj 318 255 gemwin;
#X obj 318 100 t a a;
#X obj 318 287 outlet;
#X obj 350 128 route create destroy;
#X obj 350 150 t b;
#X msg 350 172 1;
#X obj 390 150 t b;
#X msg 390 172 0;
#X obj 350 195 t f;
#X msg 350 219 set \$1;
#X text 118 122 rendering;
#X connect 1 0 2 0;
#X connect 2 0 3 0;
#X connect 2 1 4 0;
#X connect 3 0 5 0;
#X connect 4 0 5 0;
#X connect 5 0 8 0;
#X connect 6 0 8 0;
#X connect 7 0 9 0;
#X connect 8 0 7 0;
#X connect 8 1 10 0;
#X connect 10 0 11 0;
#X connect 10 1 13 0;
#X connect 11 0 12 0;
#X connect 12 0 15 0;
#X connect 13 0 14 0;
#X connect 14 0 15 0;
#X connect 15 0 16 0;
#X connect 16 0 0 0;
#X coords 0 -1 1 1 85 40 1 100 100;
#X restore 217 54 pd gemwin;
#X obj 45 376 pix_duotone;
#X obj 49 269 tgl 15 0 empty empty Duotone 17 7 0 10 -4034 -1 -1 0
1;
#X obj 136 275 tgl 15 0 empty empty Greyscale 17 7 0 10 -4034 -1 -1
0 1;
#X obj 136 314 pix_2grey;
#X msg 82 322 1 0 0;
#X msg 102 351 0 0 0;
#X msg 123 128 dialog;
#X msg 172 105 enumerate;
#X msg 201 153 close;
#X msg 179 133 open 1;
#X msg 65 293 0 0.3 0.3;
#X obj 83 43 hsl 128 15 10 127 0 1 empty empty empty -2 -6 0 10 -204786
-1 -1 12700 1;
#X floatatom 94 69 5 0 0 0 - - -;
#X obj 54 77 metro;
#X msg 79 18 100;
#X obj 164 572 hsl 128 15 0.5 20 0 0 empty empty empty -2 -6 0 10 -232576
-1 -1 0 1;
#X floatatom 164 597 5 0 0 0 - - -;
#X obj 50 670 rectangle;
#X obj 153 625 hsl 128 15 0.5 20 0 0 empty empty empty -2 -6 0 10 -232576
-1 -1 0 1;
#X floatatom 150 649 5 0 0 0 - - -;
#X obj 258 134 cnv 15 175 215 empty empty empty 20 12 0 14 -106138
-66577 0;
#X obj 248 352 cnv 15 120 25 empty empty empty 20 12 0 14 -24198 -66577
0;
#X floatatom 266 137 5 0 64 1 segments - -;
#X floatatom 281 157 5 0 0 1 sourceAngle - -;
#X obj 251 357 pix_kaleidoscope;
#X floatatom 312 233 5 0 0 1 outputAngle - -;
#X floatatom 358 329 5 0.1 10 1 sap - -;
#X floatatom 342 313 5 0 1 1 rlp - -;
#X obj 327 292 pack;
#X obj 381 292 t b f;
#X floatatom 327 253 4 0 100 0 - - -;
#X floatatom 379 253 4 0 100 0 - - -;
#X obj 327 272 * 0.01;
#X obj 379 272 * 0.01;
#X obj 297 214 pack;
#X obj 351 214 t b f;
#X floatatom 297 175 4 0 100 0 - - -;
#X floatatom 349 175 4 0 100 0 - - -;
#X obj 297 194 * 0.01;
#X obj 349 194 * 0.01;
#X obj 548 347 hsl 128 15 0.5 20 0 0 empty empty empty -2 -6 0 10 -232576
-1 -1 3400 1;
#X floatatom 548 372 5 0 0 0 - - -;
#X obj 434 445 rectangle;
#X obj 537 400 hsl 128 15 0.5 20 0 0 empty empty empty -2 -6 0 10 -232576
-1 -1 2300 1;
#X floatatom 534 424 5 0 0 0 - - -;
#X obj 347 631;
#X connect 1 0 2 0;
#X connect 2 0 1 0;
#X connect 5 0 120 0;
#X connect 5 0 117 0;
#X connect 6 0 7 0;
#X connect 7 0 9 2;
#X connect 8 0 9 2;
#X connect 9 0 5 0;
#X connect 10 0 54 2;
#X connect 11 0 54 3;
#X connect 12 0 42 0;
#X connect 19 0 11 0;
#X connect 27 0 53 0;
#X connect 28 0 54 1;
#X connect 30 0 54 1;
#X connect 31 0 54 0;
#X connect 33 0 34 0;
#X connect 34 0 54 1;
#X connect 42 0 54 3;
#X connect 44 0 54 4;
#X connect 45 0 54 4;
#X connect 46 0 54 4;
#X connect 47 0 17 0;
#X connect 47 1 13 0;
#X connect 47 2 16 0;
#X connect 47 3 29 0;
#X connect 47 4 48 0;
#X connect 50 0 10 0;
#X connect 54 0 9 0;
#X connect 54 1 47 0;
#X connect 57 0 59 0;
#X connect 58 0 61 0;
#X connect 59 0 62 0;
#X connect 60 0 72 0;
#X connect 62 0 75 0;
#X connect 62 0 78 0;
#X connect 63 0 57 0;
#X connect 64 0 62 1;
#X connect 65 0 88 0;
#X connect 66 0 64 0;
#X connect 67 0 72 1;
#X connect 68 0 72 2;
#X connect 69 0 72 3;
#X connect 70 0 74 0;
#X connect 71 0 72 4;
#X connect 72 0 58 0;
#X connect 73 0 74 0;
#X connect 75 0 99 0;
#X connect 76 0 75 0;
#X connect 77 0 78 0;
#X connect 78 0 99 0;
#X connect 79 0 75 2;
#X connect 80 0 75 3;
#X connect 81 0 59 0;
#X connect 82 0 59 0;
#X connect 83 0 59 0;
#X connect 84 0 59 0;
#X connect 85 0 75 1;
#X connect 86 0 87 0;
#X connect 86 0 88 1;
#X connect 88 0 63 0;
#X connect 89 0 86 0;
#X connect 90 0 91 0;
#X connect 90 0 92 1;
#X connect 93 0 94 0;
#X connect 93 0 92 2;
#X connect 97 0 99 1;
#X connect 98 0 99 2;
#X connect 99 0 60 0;
#X connect 100 0 99 4;
#X connect 101 0 99 7;
#X connect 102 0 99 6;
#X connect 103 0 99 5;
#X connect 104 0 103 0;
#X connect 104 1 103 1;
#X connect 105 0 107 0;
#X connect 106 0 108 0;
#X connect 107 0 103 0;
#X connect 108 0 104 0;
#X connect 109 0 99 3;
#X connect 110 0 109 0;
#X connect 110 1 109 1;
#X connect 111 0 113 0;
#X connect 112 0 114 0;
#X connect 113 0 109 0;
#X connect 114 0 110 0;
#X connect 115 0 116 0;
#X connect 115 0 117 1;
#X connect 118 0 119 0;
#X connect 118 0 117 2;
